<svg height="512" viewBox="0 0 60 55" width="512" xmlns="http://www.w3.org/2000/svg"><g id="018---Astronaut" fill="none"><g id="Icons" transform="translate(1 1)"><path id="Shape" d="m22.13 30.34c-.8000019 2.3952715-1.2052881 4.9046682-1.2 7.43-.3683521.2634983-.7190989.5507766-1.05.86-2.19-1-6.47-1.7-11.37 1.37l-1.06.64c-.71670809.4310895-1.58083773.5434194-2.38394054.3098931-.80310281-.2335264-1.47226157-.7917061-1.84605946-1.5398931l-2.85-5.66c-.24843286-.5031975-.27402788-1.0876194-.07053735-1.6106091s.61734329-.9364264 1.14053735-1.1393909c4.5-1.66 6.06 3 6.06 3 3.9576172-3.5825385 9.4412495-4.9553219 14.62-3.66z" fill="#f57c00"/><path id="Shape" d="m48.71 21.8-.43.92c-.8842737.1816441-1.8029113-.0544716-2.49-.64-3.3-2.74-2.85-2.37-3-2.45.9553413-.7364077 1.7830556-1.6249336 2.45-2.63l1.93.83c.7326808.3199082 1.307364.919032 1.5964969 1.6643941s.268796 1.5752998-.0564969 2.3056059z" fill="#f57c00"/><path id="Shape" d="m50.54 43.28c-3.61 4.32-8.48 4-12.7.37.6440864-.2985869 1.1614131-.8159136 1.46-1.46l.85-1.85c1.1408757 1.1666469 2.6487873 1.9047114 4.27 2.09 1.2072066-.0867748 2.3102058-.7154843 3-1.71.6004106-.6360177.8638159-1.518982.71-2.38-.35-2-2.51-4.15-4.46-5.71l1.73-3.72c5.31 3.88 9.23 9.45 5.14 14.37z" fill="#607d8b"/><path id="Shape" d="m28 18.5c-1.4672994 2.1978609-2.7708215 4.5007499-3.9 6.89-1.0101437.3072524-2.0487548.5116243-3.1.61-1.1354991-.0015529-2.172811-.644067-2.68-1.66l-4-8c-.7244553-1.4752873-.1269656-3.2588387 1.34-4 .4131528-.2185948.8726077-.3351729 1.34-.34 1.1354991.0015529 2.172811.644067 2.68 1.66l3 5.9 5.23-1.16c.0242891.0380616.0546984.0718497.09.1z" fill="#f57c00"/><path id="Shape" d="m45.61 28.53-.17.37-1.73 3.72-3.56 7.71-.85 1.85c-.3394585.7390448-.9644218 1.3086026-1.7317161 1.5781925-.7672944.2695899-1.6111634.2161083-2.3382839-.1481925l-2.23-1.13c1.52-.71 3.46-2.41 4-6.48.51-3.57 2.84-6.88 5-9.26 1.0525837.8618343 2.2868476 1.4738377 3.61 1.79z" fill="#f57c00"/><path id="Shape" d="m56.44 25.63-4.44 2.05c-3.2144571 1.7487883-7.1677439 1.3771793-10-.94-2.17 2.38-4.5 5.69-5 9.26-.58 4.07-2.52 5.77-4 6.48-.6256324.3041233-1.3054666.4808802-2 .52 0 0-8.5 0-11 7l-.48 1.11c-.3321359.768585-.9703531 1.3633994-1.7603893 1.6406717s-1.6599987.211771-2.3996107-.1806717l-5.6-3c-.48858329-.2599772-.84759586-.7107892-.99161288-1.2451682-.14401702-.5343789-.06016178-1.1045454.23161288-1.5748318 2.73-4.31 7-.75 7-.75.2881708-2.8647552 1.6752887-5.5063726 3.87-7.37.3309011-.3092234.6816479-.5965017 1.05-.86-.0052881-2.5253318.3999981-5.0347285 1.2-7.43.5350061-1.7064835 1.1796816-3.3766271 1.93-5 1.147453-2.3736192 2.4676701-4.6597673 3.95-6.84 3.1193497 3.3481836 7.9857463 4.4154457 12.22 2.68.9512547-.3843963 1.8407795-.9066552 2.64-1.55.12.08-.33-.29 3 2.45.9439296.7851519 2.2710135.9158795 3.35.33l4.42-2c1.4445052-.7309425 3.2084095-.183946 3.9858971 1.2360487.7774877 1.4199948.288088 3.2007395-1.1058971 4.0239513z" fill="#ff9801"/><path id="Shape" d="m57.63 21.56c-.7958826-1.4517717-2.617389-1.9843497-4.07-1.19h-.07c.4795632.2743194.8740617.6757389 1.14 1.16.7943497 1.452611.2617717 3.2741174-1.19 4.07l-4.44 2.08c-.8735068.4895548-1.8236027.8276673-2.81 1 1.9940123.3284142 4.0405295-.0238263 5.81-1l4.42-2.05c.7006499-.378789 1.2219099-1.0206536 1.448885-1.7841153.2269751-.7634616.1410323-1.585846-.238885-2.2858847z" fill="#f57c00"/><path id="Shape" d="m39 26.74c-2.17 2.38-4.5 5.69-5 9.26-.58 4.07-2.52 5.77-4 6.48-.6256324.3041233-1.3054666.4808802-2 .52 0 0-8.5 0-11 7l-.48 1.11c-.2570208.5935386-.6989841 1.0881166-1.26 1.41h.1c.739612.3924427 1.6095745.457944 2.3996107.1806717s1.4282534-.8720867 1.7603893-1.6406717l.48-1.06c2.5-7 11-7 11-7 .6945334-.0391198 1.3743676-.2158767 2-.52 1.52-.71 3.46-2.41 4-6.48.6072236-2.9718151 1.9868821-5.731132 4-8-.7204733-.3278192-1.3932496-.7516683-2-1.26z" fill="#f57c00"/><path id="Shape" d="m47 11c.0124711 2.1290457-.599423 4.2150484-1.76 6-.6544127 1.0169762-1.4720481 1.919078-2.42 2.67-.7992205.6433448-1.6887453 1.1656037-2.64 1.55-4.2311986 1.7070889-9.0770046.6249385-12.18-2.72-.0353016-.0281503-.0657109-.0619384-.09-.1-.5711568-.6030318-1.0649597-1.2748725-1.47-2 6.14 3.81 15.56.51 15.56-5.4 0-6.06-9.63-9.1-15.59-5.36 2.4478447-4.35683885 7.5249876-6.51612051 12.3612042-5.25715396 4.8362167 1.25896656 8.2160469 5.61977205 8.2287958 10.61715396z" fill="#ffdc00"/><path id="Shape" d="m36 0c-.5185775.00108852-1.0364662.03784191-1.55.11 4.3720685.58784546 7.9700499 3.73077244 9.1401692 7.98416708 1.1701193 4.25339462-.3139887 8.79441692-3.7701692 11.53583292-.7992205.6433448-1.6887453 1.1656037-2.64 1.55-.856608.350062-1.7535294.5919284-2.67.72 1.9203915.2695916 3.8779394.0210141 5.67-.72.9512547-.3843963 1.8407795-.9066552 2.64-1.55.9446428-.738883 1.7620967-1.627273 2.42-2.63 2.2028692-3.3848932 2.3737464-7.70472727.4451301-11.2530472-1.9286162-3.54831992-5.6465563-5.75446747-9.6851301-5.7469528z" fill="#fec108"/><path id="Shape" d="m42 11c0 5.91-9.42 9.21-15.6 5.36-.18-.32-.34-.65-.49-1-1.3727413-3.1390599-1.1837069-6.74183399.51-9.72 5.95-3.74 15.58-.7 15.58 5.36z" fill="#02a9f4"/><path id="Shape" d="m31 4.1c4.26.52 8 3.12 8 6.9s-3.71 6.39-8 6.92c5.4.63 11-2.36 11-6.92s-5.68-7.51-11-6.9z" fill="#0377bc"/><path id="Shape" d="m17-.00000869v8.00001738l-9.79-.00000869c-.20185437.00118573-.38462264-.11912041-.46334587-.30499469-.07872322-.18587428-.03795811-.40085338.10334587-.54500531l2.8-2.8c.19057144-.19442176.19057144-.50557824 0-.7l-2.8-2.8c-.14130398-.14415193-.18206909-.35913103-.10334587-.54500531.07872323-.18587428.2614915-.30618042.46334587-.30499469z" fill="#f44335"/><path id="Rectangle-path" d="m14 0h3v8h-3z" fill="#c81e1e"/></g><g id="Stroke" fill="#000"><path id="Shape" d="m57.13 20.16c-1.0008514-.2951241-2.0774078-.1874684-3 .3l-3.13 1.48c.175492-1.7297316-.7864551-3.3747421-2.38-4.07l-.91-.39c2.6639043-5.2161553 1.1730613-11.59333967-3.5272167-15.08791397s-11.2366162-3.08545852-15.4644594.9679356c-4.2278433 4.05339411-4.9118577 10.56670487-1.6183239 15.40997837l-2.92.65-2.61-5.21c-.4696256-.9502518-1.3023208-1.6712-2.31-2-.0852344-.0257655-.1720943-.0458101-.26-.06v-11.15c0-.55228475-.4477153-1-1-1h-9.79c-.60628331.00053327-1.15263151.3659901-1.38457395.92615297s-.10386666 1.20487339.32457395 1.63384703l2.44 2.44-2.44 2.44c-.42844061.42897364-.55651639 1.07368416-.32457395 1.63384703s.77829064.9256197 1.38457395.92615297h8.79v2.13c-1.1676169.3039353-2.1356637 1.1186656-2.6344891 2.2172461-.4988255 1.0985805-.4751288 2.3636254.0644891 3.4427539l4 8c.8167424 1.6491313 2.6532982 2.5282019 4.45 2.13l.5-.12c-.34.81-.64 1.6-.91 2.38-4.7990809-.9172512-9.7611677.2659316-13.63 3.25-1.2733498-2.4457413-4.22425853-3.4862099-6.75-2.38-.78973173.3029779-1.41486387.9252648-1.72144109 1.7136062-.30657722.7883415-.26610799 1.6694734.11144109 2.4263938l2.83 5.67c.67825695 1.3554295 2.06434154 2.2110851 3.58 2.21 1.13764983-.0763231 2.22389677-.5024393 3.11-1.22 2.6225856-1.8173912 5.8801551-2.4689051 9-1.8-1.3493134 1.5048214-2.2923877 3.3290162-2.74 5.3-2.71-1.37-5.36-.87-7.09 1.86-.4596671.707512-.6001557 1.5758827-.38702683 2.3922424s.76017126 1.5052352 1.50702683 1.8977576c6 3.15 6.14 3.42 7.47 3.42 1.5942991-.0001629 3.0362661-.9470676 3.67-2.41l.51-1.17c2.23-6.24 9.74-6.34 10.06-6.34.6559784-.0299103 1.3019864-.1719644 1.91-.42 1.85.93 2.88 1.7 4.71 1.19 4.57 3.62 9.83 3.74 13.68-.85 1.5435762-1.7674883 2.2019434-4.1398172 1.79-6.45-.54-3-2.72-5.68-5-7.69 1.5152105-.0611814 2.9963358-.4682343 4.33-1.19l4.48-2.08c1.4215101-.7716824 2.2383771-2.3235159 2.069851-3.9321749-.1685262-1.6086589-1.2892739-2.9575042-2.839851-3.4178251zm-9.35-.45c.4896552.2180686.8712834.6235623 1.0592861 1.1255295.1880028.5019673.1666438 1.0583925-.0592861 1.5444705l-.18.4c-.87 0-1.19-.47-3.26-2.18.4517002-.4283113.8634047-.896918 1.23-1.4zm-2.89-13.86c3.0884317 4.02542234 2.6728437 9.7257448-.9667816 13.2606511-3.6396254 3.5349063-9.3496488 3.7839496-13.2832184.5793489 10.08 2.17 17.36-6.81 11.05-12.69-2.82-2.65-7.23-3.49-11.07-2.66 2.0768008-1.73073934 4.7658647-2.54687794 7.4542902-2.26239843 2.6884255.2844795 5.1471276 1.64533615 6.8157098 3.77239843zm-16.72 10.78c-.12-.22-.25-.44-.35-.67-1.1890267-2.7625985-1.0715051-5.9136451.32-8.58 5.53-3.26 13.86-.38 13.86 4.62s-8.17 7.91-13.83 4.63zm-18.76-8.63 1.94-1.94c.2833721-.27993388.442861-.66167514.442861-1.06s-.1594889-.78006612-.442861-1.06l-1.94-1.94h7.59v6zm13 18c-.8954995.1973795-1.8105073-.2395161-2.22-1.06l-4-8c-.3538225-.7223151-.2405206-1.5863076.2875807-2.1929694.5281012-.6066617 1.3682381-.8379418 2.1324193-.5870306.5040338.1662169.921333.5259576 1.16 1l3 5.9c.2047463.410242.6622502.6286898 1.11.53l3.06-.68c-.75 1.24-1.65 2.84-2.53 4.66zm-13.41 14.14c-1.16.7-1.67 1.13-2.65.85-.53588948-.1424504-.98858775-.5009874-1.25-.99l-2.83-5.7c-.12669389-.2501596-.1425338-.54202-.04365775-.8044218.09887604-.2624018.30338236-.4712331.56365775-.5755782.86899354-.3863464 1.86100646-.3863464 2.73 0 .93209379.5445089 1.64079102 1.4020326 2 2.42.10697087.3175671.3658927.5604462.68964409.646914.32375138.0864678.66929229.005029.92035591-.216914 3.4523065-3.1246405 8.1544783-4.4791908 12.74-3.67-.5712309 1.9950759-.8837892 4.0552718-.93 6.13l-.28.23c-1.92-.7-6.35-1.64-11.66 1.68zm27.7 3.59-.7-.36c1.7399259-1.6313537 2.8095125-3.8525283 3-6.23.44-3.08 2.39-6 4.16-8 .650927.4151723 1.3492324.7508961 2.08 1l-5.85 12.63c-.2251059.4929919-.6406433.8735241-1.1514911 1.0544887-.5108478.1809645-1.0732653.1468665-1.5585089-.0944887zm11.5-4.22c.1027276.5719426-.0801888 1.1580218-.49 1.57-1 1.21-1.76 1.35-2.27 1.35-1.1152784-.1368372-2.1620632-.6113797-3-1.36l2.69-5.83c1.75 1.61 2.87 3.11 3.05 4.27zm2.59 4.13c-2.88 3.44-6.62 3.6-10.28 1 .439714-.5120062.7789708-1.1023129 1-1.74 2.89 2.1 5.49 2.1 7.72-.54 2.52-3-.28-6.46-3.29-9l.88-1.89c4.23 3.41 7.37 8.05 3.95 12.17zm7.15-19.08c-.1344757.4906297-.4581696.9078352-.9 1.16l-4.5 2.08c-2.8505155 1.5649151-6.3646675 1.2486809-8.89-.8-.4125444-.3416367-1.0210195-.2975443-1.38.1-2.09 2.29-4.7 5.85-5.26 9.79-.52 3.62-2.17 5.1-3.47 5.71-.4834926.2293183-1.0060245.3650409-1.54.4-.38 0-9.24.09-11.92 7.6l-.48 1.12c-.2163193.516182-.6390274.9181083-1.1654503 1.1081526-.5264229.1900444-1.1083921.1508175-1.6045497-.1081526l-5.6-3c-.2513406-.1312252-.4351604-.3629776-.5057212-.6375925-.0705607-.2746149-.0212287-.5662743.1357212-.8024075.4370821-.8331535 1.220662-1.4299924 2.14-1.63 1.212339-.0442196 2.3994055.3538386 3.34 1.12.2839059.2514959.6856555.3207319 1.0373674.1787759.3517118-.141956.5928438-.4706683.6226326-.8487759.91-9.1 13-11.1 13.15-11.1.3572656-.0535898.6588028-.2937078.7910254-.6299038.1322227-.336196.075043-.7173939-.15-1-.2250429-.2826062-.5837598-.4236861-.9410254-.3700962-2.7586954.4949907-5.4131734 1.4553369-7.85 2.84.47-5.35 3.25-11.2 6.14-15.78 4.1177104 3.5904677 10.1470922 3.928179 14.64.82l2.36 2c.8679151.7378408 2.0150436 1.0593291 3.14.88.62 0 2-.73 5.76-2.47.7011678-.3761601 1.5586198-.3008979 2.1835368.1916582.6249169.492556.8984108 1.3086991.6964632 2.0783418z"/><path id="Shape" d="m35 8c0-.55228475-.4477153-1-1-1-2.08 0-6 1-6 5 0 .5522847.4477153 1 1 1s1-.4477153 1-1c0-2.94 3.82-3 4-3 .5522847 0 1-.44771525 1-1z"/><path id="Shape" d="m7 18c-.55228475 0-1 .4477153-1 1v1h-1c-.55228475 0-1 .4477153-1 1s.44771525 1 1 1h1v1c0 .5522847.44771525 1 1 1s1-.4477153 1-1v-1h1c.55228475 0 1-.4477153 1-1s-.44771525-1-1-1h-1v-1c0-.5522847-.44771525-1-1-1z"/><path id="Shape" d="m34 51h-1v-1c0-.5522847-.4477153-1-1-1s-1 .4477153-1 1v1h-1c-.5522847 0-1 .4477153-1 1s.4477153 1 1 1h1v1c0 .5522847.4477153 1 1 1s1-.4477153 1-1v-1h1c.5522847 0 1-.4477153 1-1s-.4477153-1-1-1z"/><path id="Shape" d="m53 6c.5522847 0 1-.44771525 1-1v-1h1c.5522847 0 1-.44771525 1-1s-.4477153-1-1-1h-1v-1c0-.55228475-.4477153-1-1-1s-1 .44771525-1 1v1h-1c-.5522847 0-1 .44771525-1 1s.4477153 1 1 1h1v1c0 .55228475.4477153 1 1 1z"/></g></g></svg>