<?xml version="1.0" encoding="iso-8859-1"?>
<!-- Generator: Adobe Illustrator 19.0.0, SVG Export Plug-In . SVG Version: 6.00 Build 0)  -->
<svg version="1.1" id="Capa_1" xmlns="http://www.w3.org/2000/svg" xmlns:xlink="http://www.w3.org/1999/xlink" x="0px" y="0px"
	 viewBox="0 0 511.999 511.999" style="enable-background:new 0 0 511.999 511.999;" xml:space="preserve">
<path style="fill:#647892;" d="M247.574,7.71c-72.019,4.547-127.681,65.172-127.681,137.334c0,20.782,0,158.624,0,176.542
	c0,6.008,4.871,10.878,10.878,10.878h50.532h34.582h80.994h88.283c4.258,0,7.709-3.452,7.709-7.709c0-62.506,0-115.944,0-180.834
	C392.871,65.745,326.806,2.709,247.574,7.71z"/>
<path style="fill:#4D6682;" d="M187.887,321.587v-90.076v-7.037c0-8.381,0-71.104,0-79.428c0-63.483,43.082-118.031,102.478-133.331
	c-86.867-22.342-170.473,43.901-170.473,133.331c0,20.782,0,158.624,0,176.542c0,6.008,4.871,10.878,10.878,10.878h50.532h17.463
	C192.757,332.464,187.887,327.594,187.887,321.587z"/>
<g>
	<path style="fill:#3997EE;" d="M430.995,479.204c-5.765-28.952-12.6-63.279-14.248-71.558
		c-4.284-21.457-20.048-30.182-28.734-33.421c-0.105-0.031-5.947-1.754-5.842-1.723l0,0c-0.172-0.043-27.981-6.933-52.037-12.882
		l-48.973,57.522c-14.233,16.718-35.464,16.683-49.666-0.082L182.7,359.464c-6.926,1.726-23.531,5.819-52.659,13.037h0.001
		c1.712-0.506-28.432,4.374-34.575,35.145c-1.649,8.279-8.483,42.607-14.248,71.558c-2.517,12.668,6.769,24.492,19.455,25.21
		c0.044,0.023,0.068,0.036,0.068,0.036h1.235c13.711,0,296.381,0,309.493,0c0,0,0.024-0.013,0.068-0.036
		C424.23,503.697,433.511,491.868,430.995,479.204z"/>
	<path style="fill:#3997EE;" d="M215.884,315.75h-0.038l0,0c0.058,0.028-0.308,0.092-0.453,0.116
		c0.204,0.001,0.363,0.002,0.491,0.003V315.75z"/>
</g>
<path style="fill:#1E88D8;" d="M108.216,479.204c0,0,12.6-71.278,14.248-79.558c3.507-17.563,14.702-26.592,23.414-31.069
	c-7.425,1.839-13.22,3.275-15.837,3.923h0.001c1.712-0.506-28.432,4.374-34.575,35.145c-1.649,8.279-8.483,42.607-14.248,71.558
	c-2.522,12.716,6.811,24.495,19.455,25.21c0.044,0.023,0.068,0.036,0.068,0.036h1.235h25.763c0,0-0.024-0.013-0.068-0.036
	C115.026,503.699,105.695,491.918,108.216,479.204z"/>
<path style="fill:#EDB87E;" d="M302.253,352.734c-3.744-0.926-6.373-4.285-6.373-8.141c0,0,0-17.085,0-28.844h-7.277
	c-20.556,7.536-43.709,7.984-65.433,0h-7.283v29.503c0,3.472-2.362,6.497-5.73,7.34l-28.853,7.221l50.193,59.245
	c14.203,16.765,35.434,16.8,49.666,0.082l50.374-59.166L302.253,352.734z"/>
<path style="fill:#E4A970;" d="M275.269,424.817L255.9,403.073c-8.384-9.412-13.018-21.578-13.018-34.184v-48.226
	c-6.627-0.917-13.235-2.532-19.714-4.913h-7.283v29.503c0,3.472-2.362,6.497-5.73,7.34l-28.853,7.221l50.193,59.245
	C243.846,433.638,261.512,435.558,275.269,424.817z"/>
<path style="fill:#FAC149;" d="M231.495,419.059c14.203,16.765,35.434,16.8,49.666,0.082l26.122-30.681H205.571L231.495,419.059z"/>
<path style="fill:#F8A748;" d="M231.495,419.059c5.848,6.9,13.795,11.888,22.909,12.522c7.682,0.533,14.908-2.114,20.864-6.764
	c-16.217-19.135-23.234-23.574-28.5-36.357h-41.198C214.676,399.206,222.42,408.347,231.495,419.059z"/>
<path style="fill:#F4C48B;" d="M174.415,197.245c-7.339-0.444-13.525,5.419-13.525,12.771v17.922
	c0,54.723,45.355,99.296,100.019,96.745c50.636-2.362,90.966-44.159,90.966-95.388v-61.068c0-6.256-4.646-11.515-10.848-12.329
	c-8.169-1.072-19.116-5.418-26.087-19.779c-1.824-3.757-6.994-4.243-9.467-0.877C290.832,155.175,248.449,201.718,174.415,197.245z"
	/>
<path style="fill:#EDB87E;" d="M187.887,229.295v-31.791c-4.369,0.099-8.859,0.018-13.473-0.26
	c-7.339-0.444-13.525,5.419-13.525,12.771v17.922c0,54.723,45.355,99.296,100.019,96.745c3.03-0.141,6.023-0.428,8.972-0.845
	C223.536,317.28,187.887,277.458,187.887,229.295z"/>
<path style="fill:#FAC149;" d="M378.796,170.727v63.998C407.452,223.031,407.517,182.447,378.796,170.727z"/>
<path style="fill:#F8A748;" d="M378.796,199.477v35.247c19.757-8.062,27.419-31.658,16.703-49.622
	C391.665,191.528,385.809,196.616,378.796,199.477z"/>
<path style="fill:#FAC149;" d="M134.048,170.727v63.998C105.285,223.031,105.219,182.448,134.048,170.727z"/>
<path style="fill:#F8A748;" d="M118.036,183.92c-11.829,18.053-4.301,42.546,16.012,50.804V197.16
	C127.442,194.465,121.871,189.802,118.036,183.92z"/>
<path style="fill:#3997EE;" d="M247.099,305.466h18.072c7.292,0,13.588-5.604,13.909-12.888c0.341-7.733-5.828-14.11-13.485-14.11
	h-18.919c-7.657,0-13.826,6.377-13.485,14.11C233.511,299.863,239.807,305.466,247.099,305.466z"/>
<path style="fill:#1E88D8;" d="M256.148,292.578c-0.31-7.038,4.777-12.935,11.465-13.942c-0.661-0.099-1.332-0.168-2.02-0.168
	h-18.919c-7.657,0-13.826,6.377-13.485,14.11c0.321,7.285,6.616,12.888,13.909,12.888h18.072c0.831,0,1.646-0.082,2.443-0.221
	C261.411,304.159,256.433,299.034,256.148,292.578z"/>
<path style="fill:#F8A748;" d="M133.954,234.72v-63.988c0-7.292,5.604-13.588,12.889-13.909c7.733-0.341,14.109,5.828,14.109,13.486
	v64.834c0,7.658-6.376,13.826-14.109,13.486C139.557,248.308,133.954,242.012,133.954,234.72z"/>
<path style="fill:#F38D1A;" d="M146.843,209.132c-7.285-0.321-12.889-6.616-12.889-13.909v39.497
	c0,7.292,5.604,13.588,12.889,13.909c7.733,0.341,14.109-5.828,14.109-13.486v-39.497
	C160.952,203.304,154.575,209.472,146.843,209.132z"/>
<path style="fill:#F8A748;" d="M351.853,234.72v-63.988c0-7.292,5.608-13.588,12.899-13.909c7.739-0.34,14.121,5.828,14.121,13.486
	v64.834c0,7.657-6.381,13.826-14.121,13.486C357.46,248.308,351.853,242.012,351.853,234.72z"/>
<path style="fill:#F38D1A;" d="M364.752,209.132c-7.291-0.321-12.899-6.616-12.899-13.909v39.497
	c0,7.292,5.608,13.588,12.899,13.909c7.739,0.34,14.121-5.828,14.121-13.486v-39.497
	C378.872,203.303,372.491,209.472,364.752,209.132z"/>
<path d="M438.345,477.74l-4.855-24.376c-0.808-4.063-4.756-6.701-8.818-5.892c-4.063,0.809-6.699,4.757-5.892,8.818l4.855,24.377
	c1.684,8.46-4.792,16.333-13.405,16.333h-43.815v-34.058c0-4.143-3.357-7.499-7.499-7.499c-4.142,0-7.499,3.357-7.499,7.499V497
	H222.153c-4.143,0-7.499,3.357-7.499,7.499c0,4.143,3.357,7.499,7.499,7.499H410.23C428.325,512,441.872,495.455,438.345,477.74z"/>
<path d="M256.079,439.851c0.015,0,0.028,0,0.043,0c11.177,0,21.837-5.293,30.023-14.907l48.168-56.575l46.047,11.411l0.003-0.008
	c0.571,0.198,0.74,0.23,5.259,1.568c7.476,2.841,20.253,10.184,23.764,27.771l2.555,12.824c0.81,4.063,4.761,6.699,8.819,5.891
	c4.063-0.809,6.699-4.758,5.891-8.819l-2.556-12.828c-4.972-24.908-23.101-35.113-33.466-38.98
	c-3.882-1.441-10.466-2.92-86.766-21.829v-5.208h81.19c8.386,0,15.209-6.822,15.209-15.209v-97.657
	c5.03-6.993,7.887-15.521,7.887-24.569c0-9.048-2.858-17.576-7.888-24.57v-34.298c0-38.513-15.08-74.716-42.463-101.941
	C306.344-9.244,225.791-14.014,169.051,30.04c-3.271,2.54-3.864,7.251-1.324,10.522c2.541,3.273,7.251,3.866,10.522,1.324
	C228.896,2.564,301.094,6.688,347.222,52.552c24.53,24.39,38.039,56.816,38.039,91.305v18.715
	c-2.142-5.596-6.591-10.041-12.187-12.181v-6.533c0-64.308-52.319-116.627-116.628-116.627S139.818,79.549,139.818,143.857v6.534
	c-5.597,2.14-10.046,6.587-12.188,12.183v-17.218c0-29.233,9.424-56.905,27.254-80.025c2.529-3.28,1.921-7.988-1.359-10.519
	c-3.279-2.527-7.988-1.922-10.519,1.359c-19.871,25.769-30.375,56.608-30.375,89.184v32.798c-5.03,6.993-7.888,15.522-7.888,24.57
	c0,9.049,2.858,17.577,7.888,24.571v94.488c0,10.133,8.243,18.378,18.377,18.378h77.404v5.143
	c-6.311,1.56-78.189,19.375-86.268,21.727l0.009,0.03c-0.167,0.061-0.329,0.126-0.486,0.192l-0.021-0.057
	c-10.364,3.867-28.495,14.072-33.467,38.983c-6.002,30.139-10.207,51.128-14.539,72.762c-3.425,17.117,9.675,33.056,27.098,33.056
	h86.418c4.143,0,7.499-3.357,7.499-7.499c0-4.143-3.357-7.499-7.499-7.499h-26.311V462.94c0-4.143-3.357-7.499-7.499-7.499
	s-7.499,3.357-7.499,7.499v34.058h-45.107c-7.98,0-13.954-7.301-12.39-15.114c5.342-26.686,9.183-45.868,14.54-72.773
	c4.947-24.778,27.886-28.777,29.185-29.373l46.06-11.415l-0.001-0.001c0.001,0.001,0,0,0.001,0.001l47.885,56.523
	C233.815,434.052,244.359,439.837,256.079,439.851z M204.4,299.829h22.513c3.033,7.933,10.703,13.593,19.69,13.593h19.05
	c11.631,0,21.093-9.462,21.093-21.092c0-11.631-9.462-21.093-21.093-21.093h-19.051c-8.987,0-16.658,5.66-19.69,13.594h-24.487
	c-5.309,0-10.457-0.706-15.294-2.035c-12.015-15.612-18.722-34.986-18.722-54.856v-17.88c0-1.479,0.594-2.852,1.671-3.866
	c0.986-0.929,2.247-1.43,3.581-1.43c0.107,0,0.215,0.003,0.323,0.01c3.526,0.213,6.972,0.315,10.362,0.315
	c68.267-0.006,108.913-41.655,125.117-62.776c8.492,15.191,21.061,19.896,30.359,21.119c2.462,0.323,4.318,2.425,4.318,4.89v60.974
	C344.142,301.42,261.403,342.555,204.4,299.829z M240.511,292.33c0-3.36,2.734-6.095,6.095-6.095h19.051
	c3.36,0,6.095,2.734,6.095,6.095c0,3.36-2.734,6.094-6.095,6.094h-19.051C243.244,298.423,240.511,295.69,240.511,292.33z
	 M386.667,185.135c0.152,0.212,0.315,0.414,0.487,0.609c3.796,4.706,5.995,10.637,5.995,16.981c0,6.348-2.201,12.282-6,16.988
	c-0.171,0.193-0.332,0.393-0.482,0.603V185.135z M385.262,242.877v82.076c0,0.116-0.094,0.21-0.21,0.21h-81.19v-4.588
	c25.838-13.454,45.117-37.529,52.257-66.377c2.848,1.436,6.053,2.264,9.454,2.264C374.558,256.462,382.227,250.806,385.262,242.877z
	 M359.479,170.082c0-3.36,2.734-6.095,6.095-6.095c3.36,0,6.095,2.734,6.095,6.095l0,0v65.289l0,0c0,3.36-2.734,6.094-6.095,6.094
	c-3.36,0-6.095-2.733-6.095-6.094V170.082z M154.817,143.857c0-56.038,45.59-101.628,101.629-101.628s101.629,45.59,101.629,101.628
	v6.533c-2.017,0.771-3.887,1.835-5.554,3.154c-2.918-2.633-6.612-4.44-10.743-4.983c-9.002-1.185-15.823-6.426-20.27-15.581
	c-4.292-8.837-16.444-9.955-22.259-2.039c-13.401,18.239-50.659,59.146-114.992,59.144c-3.061,0-6.186-0.092-9.368-0.284
	c-2.194-0.133-4.38,0.115-6.477,0.683v-20.404c0-8.987-5.66-16.659-13.594-19.691v-6.532H154.817z M158.877,261.201
	c-1.133-2.165-2.038-4.41-2.702-6.713c0.205-0.095,0.409-0.193,0.61-0.294C157.399,256.554,158.101,258.89,158.877,261.201z
	 M141.224,235.371v-65.289l0,0c0-3.36,2.734-6.095,6.095-6.095c3.36,0,6.094,2.734,6.094,6.095l0,0v65.289l0,0
	c0,3.36-2.733,6.094-6.094,6.094C143.958,241.463,141.224,238.73,141.224,235.371L141.224,235.371z M126.225,220.316
	c-0.152-0.212-0.315-0.415-0.487-0.609c-3.796-4.705-5.996-10.638-5.996-16.982c0-6.343,2.2-12.276,5.996-16.981
	c0.173-0.195,0.336-0.397,0.487-0.609V220.316z M131.008,325.163c-1.862,0-3.378-1.516-3.378-3.379v-78.907
	c2.286,5.973,7.194,10.655,13.326,12.6c2.012,9.228,6.643,17.826,13.547,25.066c6.426,6.741,14.61,11.89,23.79,15.169
	c2.367,2.798,4.885,5.481,7.552,8.027c6.88,6.566,14.466,12.055,22.566,16.409v5.015L131.008,325.163L131.008,325.163z
	 M194.379,364.299l23.338-5.784c3.347-0.83,5.696-3.909,5.696-7.355c0-0.058-0.001-0.114-0.002-0.172l0.001-24.284
	c10.474,3.593,21.542,5.457,32.876,5.457c10.787,0,21.878-1.694,32.574-5.245v24.148c-0.001,0.058-0.002,0.114-0.002,0.172
	c0,3.447,2.35,6.45,5.696,7.279l23.489,5.822l-13.787,16.193h-96.13L194.379,364.299z M291.49,395.529l-16.765,19.69
	c-5.289,6.213-11.894,9.632-18.603,9.632c-0.008,0-0.016,0-0.023,0c-6.727-0.008-13.344-3.452-18.636-9.697l-16.627-19.625
	L291.49,395.529L291.49,395.529z"/>
<g>
</g>
<g>
</g>
<g>
</g>
<g>
</g>
<g>
</g>
<g>
</g>
<g>
</g>
<g>
</g>
<g>
</g>
<g>
</g>
<g>
</g>
<g>
</g>
<g>
</g>
<g>
</g>
<g>
</g>
</svg>
