<svg id="Capa_1" enable-background="new 0 0 512 512" height="512" viewBox="0 0 512 512" width="512" xmlns="http://www.w3.org/2000/svg"><g><g><g><path d="m469.435 225.833-188.574-207.48c-13.165-14.47-35.95-14.47-49.116-.001l-189.177 207.481v139.333h426.867z" fill="#ffc200"/></g><g><path d="m469.435 251.139v-25.306l-188.574-207.48c-9.439-10.374-23.82-13.308-36.058-8.808 4.832 1.777 9.331 4.711 13.058 8.808z" fill="#fe9900"/></g><g><path d="m106.9 463.083v-397.6c0-4.575 4.172-8.283 9.319-8.283h279.562c5.147 0 9.319 3.708 9.319 8.283v397.6z" fill="#f3edea"/></g><g><path d="m395.781 57.2h-23c5.147 0 9.319 3.709 9.319 8.283v397.6h23v-397.6c0-4.574-4.172-8.283-9.319-8.283z" fill="#e3dcda"/></g><g><path d="m42.568 225.833 189.178 207.481c13.166 14.469 35.95 14.469 49.116-.001l188.574-207.48c1.205 1.439 1.931 3.293 1.931 5.317v256.783c0 9.15-7.418 16.568-16.568 16.568h-397.598c-9.15 0-16.568-7.418-16.568-16.568v-256.783c0-2.025.726-3.88 1.933-5.318z" fill="#ffd900"/></g><g><path d="m469.435 225.833s-8.156 8.974-21.069 23.182v238.918c0 9.15-7.418 16.568-16.568 16.568h23.001c9.15 0 16.568-7.417 16.568-16.568v-256.783c0-2.024-.726-3.879-1.932-5.317z" fill="#ffc200"/></g></g><g><path d="m475.545 221.487c-.022-.031-.042-.063-.064-.094-.042-.057-.09-.11-.134-.166-.056-.069-.105-.143-.162-.211-.026-.031-.055-.057-.081-.088-.035-.04-.065-.081-.101-.12-.006-.007-.011-.014-.017-.021l-62.386-68.638v-86.666c0-8.703-7.545-15.783-16.818-15.783h-76.295l-33.078-36.396c-7.694-8.454-18.668-13.304-30.106-13.304s-22.411 4.85-30.099 13.299l-33.19 36.401h-76.795c-9.274 0-16.818 7.08-16.818 15.783v42.983c0 4.143 3.357 7.5 7.5 7.5s7.5-3.357 7.5-7.5l-.002-42.968c.05-.169.634-.799 1.82-.799h279.563c1.186 0 1.77.63 1.818.783v228.237l-122.285 134.547c-4.93 5.417-11.681 8.4-19.012 8.4-7.33 0-14.081-2.983-19.015-8.406l-122.888-134.777v-155.011c0-4.143-3.357-7.5-7.5-7.5s-7.5 3.357-7.5 7.5v13.899l-62.374 68.409c-.007.008-.013.017-.02.024-.028.031-.055.063-.082.094-.033.038-.07.072-.103.111-.077.091-.142.19-.217.283-.025.033-.054.065-.078.099-.016.023-.033.045-.049.067-2.153 2.763-3.344 6.176-3.344 9.691v256.783c0 6.618 2.686 12.62 7.024 16.975.005.006.009.012.015.018.207.224.426.429.653.622 4.299 4 10.055 6.453 16.376 6.453h316.739c4.142 0 7.5-3.357 7.5-7.5s-3.358-7.5-7.5-7.5h-314.125l119.377-110.194 47.006 51.554c7.693 8.456 18.666 13.306 30.105 13.306h.001c11.438 0 22.412-4.85 30.107-13.309l46.646-51.322 119.128 109.965h-48.245c-4.142 0-7.5 3.357-7.5 7.5s3.358 7.5 7.5 7.5h50.858c6.337 0 12.105-2.465 16.408-6.482.126-.109.245-.23.366-.349 4.495-4.375 7.295-10.483 7.295-17.236v-256.784c0-3.501-1.183-6.903-3.322-9.662zm-238.251-198.088c4.928-5.416 11.679-8.399 19.009-8.399 7.331 0 14.082 2.983 19.009 8.396l23.906 26.304h-85.905zm-137.894 253.633-46.683-51.199 46.683-51.2zm-51.267 210.339v-244.303l120.953 132.655zm364.467-312.92 46.701 51.383-46.701 51.383zm51.267 68.659v244.261l-120.721-111.436z"/><path d="m289.417 147.533c8.547 0 15.5-6.953 15.5-15.5v-17.133c0-8.547-6.953-15.5-15.5-15.5h-66.834c-8.547 0-15.5 6.953-15.5 15.5v17.133c0 8.547 6.953 15.5 15.5 15.5zm-67.334-15.5v-17.133c0-.275.225-.5.5-.5h66.834c.275 0 .5.225.5.5v17.133c0 .275-.225.5-.5.5h-66.834c-.275 0-.5-.224-.5-.5z"/><path d="m149.101 189.733c0 4.143 3.357 7.5 7.5 7.5h198.799c4.143 0 7.5-3.357 7.5-7.5s-3.357-7.5-7.5-7.5h-198.799c-4.143 0-7.5 3.358-7.5 7.5z"/><path d="m156.601 230.367h198.799c4.143 0 7.5-3.357 7.5-7.5s-3.357-7.5-7.5-7.5h-198.799c-4.143 0-7.5 3.357-7.5 7.5s3.357 7.5 7.5 7.5z"/><path d="m156.601 263.5h198.799c4.143 0 7.5-3.357 7.5-7.5s-3.357-7.5-7.5-7.5h-198.799c-4.143 0-7.5 3.357-7.5 7.5s3.357 7.5 7.5 7.5z"/><path d="m156.601 296.633h198.799c4.143 0 7.5-3.357 7.5-7.5s-3.357-7.5-7.5-7.5h-198.799c-4.143 0-7.5 3.357-7.5 7.5 0 4.142 3.357 7.5 7.5 7.5z"/></g></g></svg>