<svg id="Capa_1" enable-background="new 0 0 512 512" height="512" viewBox="0 0 512 512" width="512" xmlns="http://www.w3.org/2000/svg"><g><g><path d="m105.994 7.485h-80.206c-9.909 0-17.942 8.033-17.942 17.942v80.206c0 9.909 8.033 17.942 17.942 17.942h80.206c9.909 0 17.942-8.033 17.942-17.942v-80.206c0-9.909-8.033-17.942-17.942-17.942z" fill="#eaeaea"/></g><g><path d="m105.994 338.904h-80.206c-9.909 0-17.942 8.033-17.942 17.942v80.206c0 9.909 8.033 17.942 17.942 17.942h80.206c9.909 0 17.942-8.033 17.942-17.942v-80.206c0-9.909-8.033-17.942-17.942-17.942z" fill="#eaeaea"/></g><g><path d="m105.994 173.291h-80.206c-9.909 0-17.942 8.033-17.942 17.942v80.205c0 9.909 8.033 17.942 17.942 17.942h80.206c9.909 0 17.942-8.033 17.942-17.942v-80.205c0-9.909-8.033-17.942-17.942-17.942z" fill="#eaeaea"/></g><g><path d="m106.029 7.485h-1.538v78.738c0 9.89-8.017 17.907-17.907 17.907h-78.738v1.538c0 9.89 8.017 17.907 17.907 17.907h80.276c9.89 0 17.907-8.017 17.907-17.907v-80.276c0-9.89-8.017-17.907-17.907-17.907z" fill="#c6d0da"/></g><g><path d="m106.029 338.904h-1.538v78.738c0 9.89-8.017 17.907-17.907 17.907h-78.738v1.538c0 9.89 8.017 17.907 17.907 17.907h80.276c9.89 0 17.907-8.017 17.907-17.907v-80.276c0-9.889-8.017-17.907-17.907-17.907z" fill="#c6d0da"/></g><g><path d="m106.029 173.291h-1.538v78.738c0 9.89-8.017 17.907-17.907 17.907h-78.738v1.538c0 9.89 8.017 17.907 17.907 17.907h80.276c9.89 0 17.907-8.017 17.907-17.907v-80.276c0-9.89-8.017-17.907-17.907-17.907z" fill="#c6d0da"/></g><g><path d="m250.501 312.167h-64.852c-2.761 0-5-2.239-5-5v-128.873c0-2.761 2.239-5 5-5h64.852c2.761 0 5 2.239 5 5v128.873c0 2.761-2.239 5-5 5z" fill="#e49824"/></g><g><path d="m295.225 312.167h-34.724c-2.761 0-5-2.239-5-5v-128.873c0-2.761 2.239-5 5-5h34.724c2.761 0 5 2.239 5 5v128.873c0 2.761-2.238 5-5 5z" fill="#465961"/></g><g><path d="m339.949 312.167h-34.724c-2.761 0-5-2.239-5-5v-128.873c0-2.761 2.239-5 5-5h34.724c2.761 0 5 2.239 5 5v128.873c0 2.761-2.238 5-5 5z" fill="#d5b0ec"/></g><g><path d="m285.443 146.358h-20.523c-2.761 0-5-2.239-5-5v-128.873c0-2.761 2.239-5 5-5h20.523c2.761 0 5 2.239 5 5v128.873c0 2.761-2.239 5-5 5z" fill="#f6e738"/></g><g><path d="m206.172 146.358h-20.523c-2.761 0-5-2.239-5-5v-128.873c0-2.761 2.239-5 5-5h20.523c2.761 0 5 2.239 5 5v128.873c0 2.761-2.239 5-5 5z" fill="#465961"/></g><g><path d="m315.966 146.358h-20.523c-2.761 0-5-2.239-5-5v-128.873c0-2.761 2.239-5 5-5h20.523c2.761 0 5 2.239 5 5v128.873c0 2.761-2.238 5-5 5z" fill="#e49824"/></g><g><path d="m254.92 146.358h-38.748c-2.761 0-5-2.239-5-5v-128.873c0-2.761 2.239-5 5-5h38.748c2.761 0 5 2.239 5 5v128.873c0 2.761-2.239 5-5 5z" fill="#ae66d8"/></g><g><path d="m436.032 146.358h-50.033c-2.761 0-5-2.239-5-5v-128.873c0-2.761 2.239-5 5-5h50.033c2.761 0 5 2.239 5 5v128.873c0 2.761-2.239 5-5 5z" fill="#d5b0ec"/></g><g><path d="m470.424 146.358h-24.392c-2.761 0-5-2.239-5-5v-128.873c0-2.761 2.239-5 5-5h24.392c2.761 0 5 2.239 5 5v128.873c0 2.761-2.239 5-5 5z" fill="#c73044"/></g><g><path d="m375.999 146.358h-50.033c-2.761 0-5-2.239-5-5v-128.873c0-2.761 2.239-5 5-5h50.033c2.761 0 5 2.239 5 5v128.873c0 2.761-2.239 5-5 5z" fill="#465961"/></g><g><path d="m250.501 477.777h-20.222c-2.761 0-5-2.239-5-5v-128.873c0-2.761 2.239-5 5-5h20.222c2.761 0 5 2.239 5 5v128.873c0 2.761-2.239 5-5 5z" fill="#d5b0ec"/></g><g><path d="m220.279 477.777h-34.631c-2.761 0-5-2.239-5-5v-128.873c0-2.761 2.239-5 5-5h34.631c2.761 0 5 2.239 5 5v128.873c0 2.761-2.238 5-5 5z" fill="#f6e738"/></g><g><path d="m387.284 477.777h-38.748c-2.761 0-5-2.239-5-5v-128.873c0-2.761 2.239-5 5-5h38.748c2.761 0 5 2.239 5 5v128.873c0 2.761-2.239 5-5 5z" fill="#e49824"/></g><g><path d="m436.032 477.777h-38.748c-2.761 0-5-2.239-5-5v-128.873c0-2.761 2.239-5 5-5h38.748c2.761 0 5 2.239 5 5v128.873c0 2.761-2.239 5-5 5z" fill="#d5b0ec"/></g><g><path d="m470.342 477.777h-24.311c-2.761 0-5-2.239-5-5v-128.873c0-2.761 2.239-5 5-5h24.311c2.761 0 5 2.239 5 5v128.873c0 2.761-2.238 5-5 5z" fill="#465961"/></g><g><path d="m338.536 477.777h-43.978c-2.761 0-5-2.239-5-5v-128.873c0-2.761 2.239-5 5-5h43.978c2.761 0 5 2.239 5 5v128.873c0 2.761-2.238 5-5 5z" fill="#c73044"/></g><g><path d="m456.774 312.167h-34.724c-2.761 0-5-2.239-5-5v-128.873c0-2.761 2.239-5 5-5h34.724c2.761 0 5 2.239 5 5v128.873c0 2.761-2.238 5-5 5z" fill="#ae66d8"/></g><g><path d="m285.453 7.485h-8.744v115.158c0 5.512-4.468 9.98-9.98 9.98h-6.809v8.744c0 2.756 2.234 4.99 4.99 4.99h20.543c2.756 0 4.99-2.234 4.99-4.99v-128.892c0-2.756-2.234-4.99-4.99-4.99z" fill="#ecc32e"/></g><g><path d="m206.182 7.485h-8.744v115.158c0 5.512-4.468 9.98-9.98 9.98h-6.809v8.744c0 2.756 2.234 4.99 4.99 4.99h20.543c2.756 0 4.99-2.234 4.99-4.99v-128.892c0-2.756-2.234-4.99-4.99-4.99z" fill="#394949"/></g><g><path d="m315.976 7.485h-8.744v115.158c0 5.512-4.468 9.98-9.98 9.98h-6.809v8.744c0 2.756 2.234 4.99 4.99 4.99h20.543c2.756 0 4.99-2.234 4.99-4.99v-128.892c0-2.756-2.234-4.99-4.99-4.99z" fill="#df751c"/></g><g><path d="m254.929 7.485h-8.744v115.158c0 5.512-4.468 9.98-9.98 9.98h-25.033v8.744c0 2.756 2.234 4.99 4.99 4.99h38.767c2.756 0 4.99-2.234 4.99-4.99v-128.892c.001-2.756-2.234-4.99-4.99-4.99z" fill="#80499e"/></g><g><path d="m436.041 7.485h-8.744v115.158c0 5.512-4.468 9.98-9.98 9.98h-36.318v8.744c0 2.756 2.234 4.99 4.99 4.99h50.052c2.756 0 4.99-2.234 4.99-4.99v-128.892c.001-2.756-2.234-4.99-4.99-4.99z" fill="#bb80e0"/></g><g><path d="m470.433 7.485h-8.744v115.158c0 5.512-4.468 9.98-9.98 9.98h-10.678v8.744c0 2.756 2.234 4.99 4.99 4.99h24.412c2.756 0 4.99-2.234 4.99-4.99v-128.892c0-2.756-2.234-4.99-4.99-4.99z" fill="#952436"/></g><g><path d="m376.009 7.485h-8.744v115.158c0 5.512-4.468 9.98-9.98 9.98h-36.318v8.744c0 2.756 2.234 4.99 4.99 4.99h50.052c2.756 0 4.99-2.234 4.99-4.99v-128.892c0-2.756-2.234-4.99-4.99-4.99z" fill="#394949"/></g><g><path d="m250.511 338.904h-8.744v115.159c0 5.512-4.468 9.98-9.98 9.98h-6.507v8.744c0 2.756 2.234 4.99 4.99 4.99h20.241c2.756 0 4.99-2.234 4.99-4.99v-128.893c0-2.756-2.234-4.99-4.99-4.99z" fill="#bb80e0"/></g><g><path d="m211.545 338.904v115.159c0 5.512-4.468 9.98-9.98 9.98h-20.916v8.744c0 2.756 2.234 4.99 4.99 4.99h34.65c2.756 0 4.99-2.234 4.99-4.99v-128.893c0-2.756-2.234-4.99-4.99-4.99z" fill="#ecc32e"/></g><g><path d="m378.55 338.904v115.159c0 5.512-4.468 9.98-9.98 9.98h-25.033v8.744c0 2.756 2.234 4.99 4.99 4.99h38.767c2.756 0 4.99-2.234 4.99-4.99v-128.893c0-2.756-2.234-4.99-4.99-4.99z" fill="#df751c"/></g><g><path d="m427.298 338.904v115.159c0 5.512-4.468 9.98-9.98 9.98h-25.033v8.744c0 2.756 2.234 4.99 4.99 4.99h38.767c2.756 0 4.99-2.234 4.99-4.99v-128.893c0-2.756-2.234-4.99-4.99-4.99z" fill="#bb80e0"/></g><g><path d="m470.352 338.904h-8.744v115.159c0 5.512-4.468 9.98-9.98 9.98h-10.596v8.744c0 2.756 2.234 4.99 4.99 4.99h24.33c2.756 0 4.99-2.234 4.99-4.99v-128.893c0-2.756-2.234-4.99-4.99-4.99z" fill="#394949"/></g><g><path d="m329.803 338.904v115.159c0 5.512-4.468 9.98-9.98 9.98h-30.264v8.744c0 2.756 2.234 4.99 4.99 4.99h43.997c2.756 0 4.99-2.234 4.99-4.99v-128.893c0-2.756-2.234-4.99-4.99-4.99z" fill="#952436"/></g><g><path d="m241.767 173.294v115.158c0 5.512-4.468 9.98-9.98 9.98h-51.138v8.744c0 2.756 2.234 4.99 4.99 4.99h64.872c2.756 0 4.99-2.234 4.99-4.99v-128.892c0-2.756-2.234-4.99-4.99-4.99z" fill="#df751c"/></g><g><path d="m286.491 173.294v115.158c0 5.512-4.468 9.98-9.98 9.98h-21.01v8.744c0 2.756 2.234 4.99 4.99 4.99h34.744c2.756 0 4.99-2.234 4.99-4.99v-128.892c0-2.756-2.234-4.99-4.99-4.99z" fill="#394949"/></g><g><path d="m339.959 173.294h-8.744v115.158c0 5.512-4.468 9.98-9.98 9.98h-21.01v8.744c0 2.756 2.234 4.99 4.99 4.99h34.744c2.756 0 4.99-2.234 4.99-4.99v-128.892c0-2.756-2.234-4.99-4.99-4.99z" fill="#bb80e0"/></g><g><path d="m456.784 173.294h-8.744v115.158c0 5.512-4.468 9.98-9.98 9.98h-21.01v8.744c0 2.756 2.234 4.99 4.99 4.99h34.744c2.756 0 4.99-2.234 4.99-4.99v-128.892c0-2.756-2.234-4.99-4.99-4.99z" fill="#80499e"/></g><g><path d="m413.83 304.848-20.627 7.092c-2.611.898-5.456-.491-6.354-3.103l-41.901-121.87c-.898-2.611.491-5.456 3.103-6.354l20.627-7.092c2.611-.898 5.456.491 6.354 3.103l41.901 121.87c.898 2.611-.491 5.456-3.103 6.354z" fill="#e49824"/></g><g><path d="m416.936 298.503-41.908-121.889c-.896-2.606-3.735-3.993-6.341-3.097l-7.812 2.686 39.095 113.708c.896 2.606-.49 5.446-3.097 6.341l-12.834 4.413 2.813 8.181c.896 2.606 3.735 3.993 6.341 3.096l20.646-7.098c2.607-.895 3.993-3.735 3.097-6.341z" fill="#df751c"/></g><g><path d="m490.785 504.515h-469.57c-7.383 0-13.369-5.985-13.369-13.369 0-7.383 5.985-13.369 13.369-13.369h469.571c7.383 0 13.369 5.985 13.369 13.369-.001 7.383-5.986 13.369-13.37 13.369z" fill="#a95e2c"/></g><g><path d="m490.785 338.904h-469.57c-7.383 0-13.369-5.985-13.369-13.369 0-7.383 5.985-13.369 13.369-13.369h469.571c7.383 0 13.369 5.985 13.369 13.369-.001 7.384-5.986 13.369-13.37 13.369z" fill="#a95e2c"/></g><g><path d="m490.785 173.294h-469.57c-7.383 0-13.369-5.985-13.369-13.369 0-7.383 5.985-13.369 13.369-13.369h469.571c7.383 0 13.369 5.985 13.369 13.369-.001 7.384-5.986 13.369-13.37 13.369z" fill="#a95e2c"/></g><g><path d="m490.785 477.777h-30.222c7.383 0 13.369 5.985 13.369 13.369 0 7.383-5.986 13.369-13.369 13.369h30.222c7.383 0 13.369-5.985 13.369-13.369s-5.985-13.369-13.369-13.369z" fill="#8f4e24"/></g><g><path d="m490.785 312.167h-30.222c7.383 0 13.369 5.985 13.369 13.369 0 7.383-5.986 13.369-13.369 13.369h30.222c7.383 0 13.369-5.985 13.369-13.369s-5.985-13.369-13.369-13.369z" fill="#8f4e24"/></g><g><path d="m490.785 146.557h-30.222c7.383 0 13.369 5.985 13.369 13.369 0 7.383-5.986 13.369-13.369 13.369h30.222c7.383 0 13.369-5.985 13.369-13.369 0-7.384-5.985-13.369-13.369-13.369z" fill="#8f4e24"/></g><g><path d="m25.753 131.06h80.276c14.002 0 25.392-11.391 25.392-25.392v-80.276c.001-14.001-11.39-25.392-25.392-25.392h-80.276c-14.002 0-25.392 11.391-25.392 25.392v80.276c0 14.001 11.39 25.392 25.392 25.392zm-10.422-105.668c0-5.746 4.675-10.421 10.422-10.421h80.276c5.746 0 10.422 4.675 10.422 10.421v80.276c0 5.746-4.675 10.422-10.422 10.422h-80.276c-5.746 0-10.422-4.675-10.422-10.422z"/><path d="m41.975 95.79c3.862 1.472 8.188-.467 9.66-4.331l2.99-7.852h20.805l2.955 7.83c1.131 2.998 3.979 4.844 7.004 4.844.878 0 1.772-.155 2.642-.484 3.867-1.46 5.82-5.778 4.36-9.646l-19.204-50.884c-.025-.068-.052-.136-.08-.203-1.339-3.259-4.48-5.364-8.004-5.364-.002 0-.004 0-.006 0-3.526.002-6.668 2.112-8.005 5.375-.023.058-.046.115-.068.173l-19.38 50.883c-1.471 3.864.469 8.188 4.331 9.659zm23.1-39.619 4.705 12.467h-9.453z"/><path d="m66.299 197.785h-14.991c-4.134 0-7.485 3.351-7.485 7.485v51.611c0 1.991.793 3.9 2.205 5.304 1.403 1.397 3.301 2.181 5.281 2.181h.033s13.778-.061 17.577-.061c11.787 0 21.377-9.59 21.377-21.377 0-6.39-2.833-12.119-7.292-16.039 1.678-2.866 2.657-6.188 2.657-9.742-.001-10.677-8.686-19.362-19.362-19.362zm-7.506 14.97h7.506c2.421 0 4.391 1.969 4.391 4.39s-1.97 4.39-4.391 4.39c-1.11 0-7.506.014-7.506.014zm10.125 36.579c-1.886 0-6.223.015-10.125.03v-12.836c.685-.003 10.125-.008 10.125-.008 3.532 0 6.406 2.874 6.406 6.407s-2.874 6.407-6.406 6.407z"/><path d="m90.153 406.827c-3.169-2.656-7.889-2.242-10.546.925-.416.497-.866.961-1.337 1.381-2.404 2.142-5.495 3.228-9.184 3.228-10.102 0-18.32-8.218-18.32-18.32s8.218-18.32 18.32-18.32c3.672 0 7.212 1.08 10.239 3.125 3.426 2.314 8.079 1.413 10.393-2.012 2.314-3.426 1.413-8.079-2.013-10.393-5.51-3.722-11.948-5.69-18.619-5.69-18.356 0-33.291 14.934-33.291 33.291s14.934 33.29 33.291 33.29c7.366 0 13.986-2.427 19.142-7.021 1.012-.901 1.971-1.89 2.851-2.939 2.656-3.167 2.242-7.889-.926-10.545z"/><path d="m490.786 346.39c11.499 0 20.853-9.355 20.853-20.854s-9.355-20.854-20.853-20.854h-21.526v-123.902h21.526c11.499 0 20.853-9.355 20.853-20.854s-9.355-20.854-20.853-20.854h-7.877v-126.597c0-6.879-5.597-12.475-12.476-12.475h-24.412c-1.774 0-3.46.378-4.99 1.049-1.529-.671-3.215-1.049-4.99-1.049h-50.053c-1.774 0-3.46.378-4.99 1.049-1.529-.671-3.215-1.049-4.99-1.049h-50.052c-1.774 0-3.46.378-4.99 1.049-1.529-.671-3.215-1.049-4.99-1.049h-20.543c-1.774 0-3.46.378-4.99 1.049-1.53-.671-3.216-1.049-4.99-1.049h-20.543c-1.774 0-3.46.378-4.99 1.049-1.53-.671-3.216-1.049-4.99-1.049h-38.767c-1.774 0-3.46.378-4.99 1.049-1.53-.671-3.216-1.049-4.991-1.049h-20.543c-6.879 0-12.475 5.596-12.475 12.475v126.596h-151.95c-11.499 0-20.853 9.355-20.853 20.854 0 5.758 2.346 10.977 6.131 14.754-3.817 4.444-6.131 10.214-6.131 16.518v80.276c0 14.001 11.391 25.392 25.392 25.392h80.276c14.002 0 25.392-11.391 25.392-25.392v-7.608c0-4.134-3.351-7.485-7.485-7.485s-7.485 3.351-7.485 7.485v7.608c0 5.746-4.675 10.422-10.422 10.422h-80.276c-5.746 0-10.422-4.675-10.422-10.422v-80.276c0-5.724 4.639-10.382 10.355-10.418h80.411c5.715.037 10.355 4.695 10.355 10.418v37.287c0 4.134 3.351 7.485 7.485 7.485s7.485-3.351 7.485-7.485v-37.287c0-3.712-.807-7.237-2.245-10.418h43.987v123.902h-151.95c-11.499 0-20.853 9.355-20.853 20.854 0 5.758 2.346 10.978 6.133 14.756-3.818 4.444-6.133 10.215-6.133 16.52v80.276c0 14.001 11.391 25.392 25.392 25.392h80.276c14.002 0 25.392-11.391 25.392-25.392v-80.276c0-3.713-.808-7.239-2.246-10.421h43.988v123.902h-151.949c-11.499 0-20.853 9.355-20.853 20.854 0 11.499 9.354 20.854 20.853 20.854h349.185c4.134 0 7.485-3.351 7.485-7.485s-3.351-7.485-7.485-7.485h-349.185c-3.244 0-5.883-2.639-5.883-5.884 0-3.244 2.639-5.883 5.883-5.883h469.572c3.244 0 5.883 2.639 5.883 5.883 0 3.245-2.639 5.884-5.883 5.884h-85.331c-4.134 0-7.485 3.351-7.485 7.485s3.351 7.485 7.485 7.485h85.331c11.499 0 20.853-9.355 20.853-20.854s-9.355-20.854-20.853-20.854h-7.958v-123.902zm-42.269-331.42h19.422v123.902h-19.422zm-120.065 0h45.061v19.764c0 4.134 3.351 7.485 7.485 7.485s7.485-3.351 7.485-7.485v-19.764h45.062v124.101h-45.062v-70.653c0-4.134-3.351-7.485-7.485-7.485s-7.485 3.351-7.485 7.485v70.455h-45.061zm-30.524 0h15.553v123.902h-15.553zm-30.523 0h15.552v123.902h-15.552zm-48.747 0h33.777v123.902h-33.777zm-30.524 0h15.553v123.902h-15.553zm-166.92 150.839c-3.244 0-5.883-2.639-5.883-5.884 0-3.244 2.639-5.883 5.883-5.883h469.572c3.244 0 5.883 2.639 5.883 5.883 0 3.245-2.639 5.884-5.883 5.884zm433.075 14.971v123.902h-29.754v-123.902zm-101.455 6.103 15.928-5.476 40.285 117.17-15.928 5.476zm24.671 117.799h-25.07v-72.917zm6.871-123.902h25.189v73.262zm-46.912 0v123.902h-29.754v-123.902zm-44.724 0v123.902h-29.754v-123.902zm-44.724 0v123.902h-59.882v-123.902zm-131.565 256.307c0 5.746-4.675 10.422-10.422 10.422h-80.276c-5.746 0-10.422-4.675-10.422-10.422v-80.276c0-5.746 4.675-10.421 10.422-10.421h80.276c5.746 0 10.422 4.675 10.422 10.421zm101.343 33.205h-29.66v-123.902h29.66zm30.222 0h-15.251v-123.902h15.251zm34.058 0h-19.087v-123.902h19.087zm53.977 0h-39.007v-123.902h39.007zm48.748 0h-33.777v-123.902h33.777zm48.747 0h-33.777v-123.902h33.777zm34.311 0h-19.341v-123.902h19.341zm-446.643-138.873c-3.244 0-5.883-2.639-5.883-5.884 0-3.244 2.639-5.883 5.883-5.883h469.572c3.244 0 5.883 2.639 5.883 5.883 0 3.245-2.639 5.884-5.883 5.884z"/></g></g></svg>