<svg height="512" viewBox="0 0 64 64" width="512" xmlns="http://www.w3.org/2000/svg"><path d="m4 25h56v25h-56z" fill="#e0e0e2"/><path d="m61 25h-58l5-8h48z" fill="#ffda44"/><path d="m14 33.5v3.5h-5v-3.5a2.5 2.5 0 1 1 5 0z" fill="#9bfbff"/><path d="m55 33.5v3.5h-5v-3.5a2.5 2.5 0 1 1 5 0z" fill="#9bfbff"/><path d="m46 4v6c-4.67-1.8-9.33 1.8-14 0v-6c4.67 1.8 9.33-1.8 14 0z" fill="#ff9811"/><path d="m47 24v4l-2-1.33-13-8.67-13 8.67-2 1.33v-4l15-10z" fill="#ff5023"/><path d="m3 50h58v4h-58z" fill="#3e3d42"/><path d="m45 26.67v23.33h-26v-23.33l13-8.67z" fill="#acabb1"/><path d="m27 50v-7a5 5 0 1 1 10 0v7z" fill="#a78966"/><circle cx="32" cy="29" fill="#ffda44" r="5"/><path d="m29 44h2v2h-2z"/><path d="m32 23a6 6 0 1 0 6 6 6.006 6.006 0 0 0 -6-6zm0 10a4 4 0 1 1 4-4 4 4 0 0 1 -4 4z"/><path d="m31 28.586-1.707 1.707 1.414 1.414 2-2a1 1 0 0 0 .293-.707v-3h-2z"/><path d="m15 36v-2.5a3.5 3.5 0 0 0 -7 0v2.5h-1v2h9v-2zm-2 0h-3v-2.5a1.5 1.5 0 0 1 3 0z"/><path d="m56 36v-2.5a3.5 3.5 0 0 0 -7 0v2.5h-1v2h9v-2zm-2 0h-3v-2.5a1.5 1.5 0 0 1 3 0z"/><path d="m61 49v-23a1 1 0 0 0 .85-1.53l-5-8a1 1 0 0 0 -.85-.47h-19.2l-3.8-2.54v-2.14a9.358 9.358 0 0 0 1.95.2 22.264 22.264 0 0 0 4.24-.54c2.25-.43 4.38-.84 6.45-.05a1 1 0 0 0 .93-.11.983.983 0 0 0 .43-.82v-6a.961.961 0 0 0 -.6-.91c-2.61-1.04-5.15-.54-7.59-.07a12.929 12.929 0 0 1 -5.81.25v-.27a1 1 0 0 0 -2 0v10.46l-3.8 2.54h-19.2a1 1 0 0 0 -.85.47l-5 8a1 1 0 0 0 .85 1.53v23a1 1 0 0 0 -1 1v4a1 1 0 0 0 1 1h58a1 1 0 0 0 1-1v-4a1 1 0 0 0 -1-1zm-28-43.67a15.5 15.5 0 0 0 6.19-.35 12.935 12.935 0 0 1 5.81-.26v3.95a15.5 15.5 0 0 0 -6.19.35 12.941 12.941 0 0 1 -5.81.26zm22.45 12.67 3.75 6h-11.2a1 1 0 0 0 -.45-.83l-7.75-5.17zm3.55 8v23h-13v-20.46l.45.29a1 1 0 0 0 1.55-.83v-2zm-27-10.8 14 9.34v1.59l-13.45-8.96a.975.975 0 0 0 -1.1 0l-13.45 8.96v-1.59zm0 21.8a6 6 0 0 0 -6 6v6h-6v-21.8l12-8 12 8v21.8h-6v-6a6 6 0 0 0 -6-6zm4 6v6h-8v-6a4 4 0 0 1 8 0zm-27.45-25h15.65l-7.75 5.17a1 1 0 0 0 -.45.83h-11.2zm7.98 10.88a.963.963 0 0 0 1.02-.05l.45-.29v20.46h-13v-23h11v2a.984.984 0 0 0 .53.88zm43.47 24.12h-56v-2h56z"/></svg>