<svg id="Capa_1" enable-background="new 0 0 512.002 512.002" height="512" viewBox="0 0 512.002 512.002" width="512" xmlns="http://www.w3.org/2000/svg"><g><g><g><path d="m474.501 422.183h-437c-16.569 0-30-13.431-30-30v-289.744c0-16.569 13.431-30 30-30h437c16.569 0 30 13.431 30 30v289.745c0 16.568-13.431 29.999-30 29.999z" fill="#918291"/><path d="m37.501 362.183v-253.745c0-3.314 2.686-6 6-6h431v259.745z" fill="#d8ecfe"/><path d="m37.501 422.183h437c16.568 0 30-13.431 30-30v-30h-497v30c0 16.569 13.432 30 30 30z" fill="#a79ba7"/><path d="m343.837 504.5h-175.672l30-82.317h115.672z" fill="#918291"/><path d="m333.015 474.804-141.888-33.312 7.038-19.309h115.672z" fill="#7a6d79"/></g><path d="m412.761 37.5v324.68h-313.52v-324.68c0-16.57 13.43-30 30-30h253.52c16.57 0 30 13.43 30 30z" fill="#ffface"/><path d="m412.761 37.5v34.94h-312.53l-.99-.81v-34.13c0-16.57 13.43-30 30-30h253.52c16.57 0 30 13.43 30 30z" fill="#918291"/><path d="m266.241 332.183h-131c-3.314 0-6-2.686-6-6v-26c0-3.314 2.686-6 6-6h131c3.314 0 6 2.686 6 6v26c0 3.314-2.686 6-6 6z" fill="#98d5b9"/><g><g><circle cx="204.986" cy="174.928" fill="#98d5b9" r="75.745"/></g></g></g><path d="m266.241 286.684h-131c-7.444 0-13.5 6.056-13.5 13.5v26c0 7.444 6.056 13.5 13.5 13.5h131c7.444 0 13.5-6.056 13.5-13.5v-26c0-7.444-6.056-13.5-13.5-13.5zm-1.5 38h-128v-23h128zm-33.116-170.776-38.541 38.54-14.737-14.737c-2.929-2.93-7.678-2.929-10.606 0-2.929 2.929-2.929 7.678 0 10.606l15.09 15.09c2.739 2.739 6.38 4.248 10.253 4.248s7.515-1.508 10.253-4.247l38.894-38.894c2.929-2.929 2.929-7.678 0-10.606-2.928-2.929-7.677-2.929-10.606 0zm-24.486-121.871c-4.142 0-7.5 3.358-7.5 7.5s3.358 7.5 7.5 7.5 7.5-3.358 7.5-7.5-3.358-7.5-7.5-7.5zm-60 0c-4.142 0-7.5 3.358-7.5 7.5s3.358 7.5 7.5 7.5 7.5-3.358 7.5-7.5-3.358-7.5-7.5-7.5zm30 0c-4.142 0-7.5 3.358-7.5 7.5s3.358 7.5 7.5 7.5 7.5-3.358 7.5-7.5-3.358-7.5-7.5-7.5zm65.024 367.647h27.677c4.142 0 7.5-3.358 7.5-7.5s-3.358-7.5-7.5-7.5h-27.677c-4.142 0-7.5 3.358-7.5 7.5s3.358 7.5 7.5 7.5zm140.598-274.746h-68.136c-4.142 0-7.5 3.358-7.5 7.5s3.358 7.5 7.5 7.5h68.136c4.142 0 7.5-3.358 7.5-7.5s-3.358-7.5-7.5-7.5zm-177.775-33.254c-45.901 0-83.245 37.343-83.245 83.245s37.343 83.245 83.245 83.245 83.245-37.344 83.245-83.245-37.344-83.245-83.245-83.245zm0 151.489c-37.63 0-68.245-30.615-68.245-68.245s30.614-68.245 68.245-68.245 68.245 30.614 68.245 68.245-30.615 68.245-68.245 68.245zm269.515-178.235h-54.24v-27.438c0-20.678-16.822-37.5-37.5-37.5h-253.52c-20.678 0-37.5 16.822-37.5 37.5v57.438h-46.24c-8.547 0-15.5 6.953-15.5 15.5v244.245h-15v-252.245c0-12.407 10.093-22.5 22.5-22.5h32.73c4.142 0 7.5-3.358 7.5-7.5s-3.358-7.5-7.5-7.5h-32.73c-20.678 0-37.5 16.822-37.5 37.5v289.745c0 20.678 16.822 37.5 37.5 37.5h149.948l-24.533 67.317h-9.751c-4.142 0-7.5 3.358-7.5 7.5s3.358 7.5 7.5 7.5h14.954c.015 0 .03.002.045.002.009 0 .017-.002.025-.002h175.623c.009 0 .017.002.025.002.015 0 .03-.002.045-.002h14.954c4.142 0 7.5-3.358 7.5-7.5s-3.358-7.5-7.5-7.5h-9.751l-24.533-67.316h149.948c20.678 0 37.5-16.822 37.5-37.5v-289.746c.001-20.677-16.821-37.5-37.499-37.5zm-367.76-27.438c0-12.407 10.093-22.5 22.5-22.5h253.52c12.407 0 22.5 10.093 22.5 22.5v27.438h-298.52zm0 42.438h298.52v252.245c0 4.142 3.358 7.5 7.5 7.5s7.5-3.358 7.5-7.5v-222.245h46.24c.276 0 .5.224.5.5v244.245h-360.26zm-61.74 30.5c0-.276.224-.5.5-.5h46.24v244.745h-46.74zm288.121 386.562h-154.242l24.533-67.316h105.175zm163.879-104.816c0 12.407-10.093 22.5-22.5 22.5h-437c-12.407 0-22.5-10.093-22.5-22.5v-22.5h482zm0-37.5h-15v-244.246c0-8.547-6.953-15.5-15.5-15.5h-46.24v-15h54.24c12.407 0 22.5 10.093 22.5 22.5zm-114.24-259.746h-68.136c-4.142 0-7.5 3.358-7.5 7.5s3.358 7.5 7.5 7.5h68.136c4.142 0 7.5-3.358 7.5-7.5s-3.358-7.5-7.5-7.5zm0 229.746h-68.136c-4.142 0-7.5 3.358-7.5 7.5s3.358 7.5 7.5 7.5h68.136c4.142 0 7.5-3.358 7.5-7.5s-3.358-7.5-7.5-7.5zm0-38h-68.136c-4.142 0-7.5 3.358-7.5 7.5s3.358 7.5 7.5 7.5h68.136c4.142 0 7.5-3.358 7.5-7.5s-3.358-7.5-7.5-7.5zm-68.136-116.746h38.136c4.142 0 7.5-3.358 7.5-7.5s-3.358-7.5-7.5-7.5h-38.136c-4.142 0-7.5 3.358-7.5 7.5s3.358 7.5 7.5 7.5z"/></g></svg>